<?xml version="1.0" encoding="UTF-8" standalone="yes"?><svg xmlns="http://www.w3.org/2000/svg" xmlns:xlink="http://www.w3.org/1999/xlink" height="92px" style="width:158px;height:92px;" version="1.1" viewBox="0 0 158 92" width="158px"><defs><filter height="300%" id="f1" width="300%" x="-1" y="-1"><feGaussianBlur result="blurOut" stdDeviation="2.0"/><feColorMatrix in="blurOut" result="blurOut2" type="matrix" values="0 0 0 0 0 0 0 0 0 0 0 0 0 0 0 0 0 0 .4 0"/><feOffset dx="4.0" dy="4.0" in="blurOut2" result="blurOut3"/><feBlend in="SourceGraphic" in2="blurOut3" mode="normal"/></filter></defs><g><rect fill="#FEFECE" filter="url(#f1)" height="75.6719" style="stroke: #A80036; stroke-width: 1.5;" width="143" x="6" y="8"/><ellipse cx="47.55" cy="24" fill="#ADD1B2" rx="11" ry="11" style="stroke: #A80036; stroke-width: 1.0;"/><path d="M50.3156,19.875 Q50.4719,19.6563 50.6594,19.5469 Q50.8469,19.4375 51.0656,19.4375 Q51.4406,19.4375 51.675,19.6953 Q51.9094,19.9531 51.9094,20.5625 L51.9094,22.0156 Q51.9094,22.625 51.675,22.8906 Q51.4406,23.1563 51.0656,23.1563 Q50.7219,23.1563 50.5188,22.9531 Q50.3156,22.7656 50.2063,22.25 Q50.1594,21.8906 49.9719,21.7031 Q49.6438,21.3281 49.0344,21.1094 Q48.425,20.8906 47.8,20.8906 Q47.0344,20.8906 46.4016,21.2188 Q45.7688,21.5469 45.2766,22.2969 Q44.7844,23.0469 44.7844,24.0781 L44.7844,25.1719 Q44.7844,26.4063 45.675,27.2266 Q46.5656,28.0469 48.1594,28.0469 Q49.0969,28.0469 49.7531,27.7969 Q50.1438,27.6406 50.5656,27.2031 Q50.8313,26.9375 50.9797,26.8594 Q51.1281,26.7813 51.3313,26.7813 Q51.6594,26.7813 51.9172,27.0391 Q52.175,27.2969 52.175,27.6406 Q52.175,27.9844 51.8313,28.3906 Q51.3313,28.9688 50.5344,29.2969 Q49.4563,29.75 48.1594,29.75 Q46.6438,29.75 45.4406,29.125 Q44.4563,28.625 43.7688,27.5547 Q43.0813,26.4844 43.0813,25.2031 L43.0813,24.0469 Q43.0813,22.7188 43.6984,21.5703 Q44.3156,20.4219 45.4094,19.8047 Q46.5031,19.1875 47.7375,19.1875 Q48.4719,19.1875 49.1203,19.3516 Q49.7688,19.5156 50.3156,19.875 Z "/><text fill="#000000" font-family="sans-serif" font-size="12" lengthAdjust="spacingAndGlyphs" textLength="52" x="67.45" y="28.9102">Singleton</text><line style="stroke: #A80036; stroke-width: 1.5;" x1="7" x2="148" y1="40" y2="40"/><rect fill="none" height="6" style="stroke: #C82930; stroke-width: 1.0;" width="6" x="14" y="49.418"/><text fill="#000000" font-family="sans-serif" font-size="11" lengthAdjust="spacingAndGlyphs" textLength="78" x="26" y="55.4189">world: Singleton</text><line style="stroke: #A80036; stroke-width: 1.5;" x1="7" x2="148" y1="61.8359" y2="61.8359"/><ellipse cx="17" cy="74.2539" fill="#84BE84" rx="3" ry="3" style="stroke: #038048; stroke-width: 1.0;"/><text fill="#000000" font-family="sans-serif" font-size="11" lengthAdjust="spacingAndGlyphs" text-decoration="underline" textLength="117" x="26" y="77.2549">getSingleton(): Singleton</text><line style="stroke: #000000; stroke-width: 1.0;" x1="26" x2="143" y1="79.2549" y2="79.2549"/></g></svg>