<?xml version="1.0" encoding="UTF-8" standalone="no"?>
<!DOCTYPE svg PUBLIC "-//W3C//DTD SVG 1.1//EN" "http://www.w3.org/Graphics/SVG/1.1/DTD/svg11.dtd">
<svg width="100%" height="100%" viewBox="0 0 850 720" version="1.1" xmlns="http://www.w3.org/2000/svg" xmlns:xlink="http://www.w3.org/1999/xlink" xml:space="preserve" xmlns:serif="http://www.serif.com/" style="fill-rule:evenodd;clip-rule:evenodd;stroke-miterlimit:8;">
    <g>
        <rect x="0" y="0" width="1280" height="720" style="fill:white;"/>
        <g>
            <path d="M105.615,271.104L105.615,91.896L171.5,91.896L171.5,147.24L237.385,147.24L237.385,271.104L105.615,271.104ZM187.313,98.484L220.255,131.427L187.313,131.427L187.313,98.484ZM187.313,76.083L89.802,76.083L89.802,286.917L253.198,286.917L253.198,134.063L187.313,76.083Z" style="fill-rule:nonzero;"/>
            <rect x="121.427" y="173.594" width="100.146" height="10.541" style="fill-rule:nonzero;"/>
            <rect x="121.427" y="152.51" width="34.261" height="10.542" style="fill-rule:nonzero;"/>
            <rect x="121.427" y="194.677" width="100.146" height="10.542" style="fill-rule:nonzero;"/>
            <rect x="121.427" y="215.76" width="100.146" height="10.542" style="fill-rule:nonzero;"/>
            <rect x="121.427" y="236.844" width="100.146" height="10.541" style="fill-rule:nonzero;"/>
        </g>
        <path d="M303.5,149.25L514,149.25L514,116.5L579.5,182L514,247.5L514,214.75L303.5,214.75L303.5,149.25Z" style="fill:rgb(68,114,196);stroke:rgb(47,82,143);stroke-width:1px;"/>
        <g transform="matrix(1,0,0,1,389.315,189)">
            <text x="0px" y="0px" style="font-family:'Calibri', sans-serif;font-size:24px;fill:white;">g</text>
            <g transform="matrix(1,0,0,1,11.1933,0)">
                <text x="0px" y="0px" style="font-family:'Calibri', sans-serif;font-size:24px;fill:white;">cc.e<tspan x="37.934px 47.695px " y="0px 0px ">xe</tspan></text>
            </g>
        </g>
        <path d="M303.5,542.25L514,542.25L514,509.5L579.5,575L514,640.5L514,607.75L303.5,607.75L303.5,542.25Z" style="fill:rgb(237,125,49);stroke:rgb(237,125,49);stroke-width:1px;"/>
        <g>
            <path d="M631.708,476.26L615.896,476.26L615.896,660.74L797.74,660.74L797.74,644.927L631.708,644.927L631.708,476.26Z" style="fill-rule:nonzero;"/>
            <rect x="758.208" y="476.26" width="39.532" height="152.855" style="fill-rule:nonzero;"/>
            <rect x="702.865" y="528.969" width="39.531" height="100.146" style="fill-rule:nonzero;"/>
            <rect x="647.521" y="576.406" width="39.531" height="52.709" style="fill-rule:nonzero;"/>
            <path d="M731.854,512.471L731.854,476.26L695.644,476.26L710.033,490.65L646.44,554.242L653.872,561.674L717.465,498.108L731.854,512.471Z" style="fill-rule:nonzero;"/>
        </g>
        <g>
            <path d="M455.875,495.375L363.125,495.375L363.125,439.063L455.875,439.063L455.875,495.375ZM465.813,435.75C465.813,432.106 462.831,429.125 459.188,429.125L359.813,429.125C356.169,429.125 353.188,432.106 353.188,435.75L353.188,505.313L465.813,505.313L465.813,435.75Z" style="fill-rule:nonzero;"/>
            <path d="M419.438,511.938L419.438,513.594C419.438,514.588 418.775,515.25 417.781,515.25L401.219,515.25C400.225,515.25 399.563,514.588 399.563,513.594L399.563,511.938L333.313,511.938L333.313,515.25C333.313,518.894 336.294,521.875 339.938,521.875L479.063,521.875C482.706,521.875 485.688,518.894 485.688,515.25L485.688,511.938L419.438,511.938Z" style="fill-rule:nonzero;"/>
        </g>
        <g>
            <g transform="matrix(1.00633,0,0,1,330,-7)">
                <path d="M97.598,61.39C90.685,61.39 85.254,55.794 85.254,49.046C85.254,42.298 90.85,36.702 97.598,36.702C104.51,36.702 109.942,42.298 109.942,49.046C109.942,55.794 104.346,61.39 97.598,61.39ZM125.412,41.31C124.754,39.006 123.931,36.867 122.779,34.892L125.412,27.156L119.488,21.231L111.752,23.865C109.777,22.712 107.638,21.89 105.333,21.231L101.713,13.99L93.483,13.99L89.863,21.231C87.558,21.89 85.419,22.712 83.444,23.865L75.708,21.231L69.783,27.156L72.417,34.892C71.265,36.867 70.442,39.006 69.783,41.31L62.542,44.931L62.542,53.16L69.783,56.781C70.442,59.085 71.265,61.225 72.417,63.2L69.783,70.935L75.544,76.696L83.279,74.063C85.254,75.215 87.394,76.038 89.698,76.696L93.319,83.938L101.548,83.938L105.169,76.696C107.473,76.038 109.613,75.215 111.588,74.063L119.323,76.696L125.248,70.935L122.615,63.2C123.767,61.225 124.754,58.921 125.412,56.781L132.654,53.16L132.654,44.931L125.412,41.31Z" style="fill-rule:nonzero;"/>
            </g>
            <g transform="matrix(1.00633,0,0,1,330,-7)">
                <path d="M60.402,121.298C53.49,121.298 48.058,115.702 48.058,108.954C48.058,102.042 53.654,96.61 60.402,96.61C67.315,96.61 72.746,102.206 72.746,108.954C72.746,115.702 67.315,121.298 60.402,121.298ZM85.583,94.8L88.217,87.065L82.292,81.14L74.556,83.773C72.581,82.621 70.277,81.798 68.138,81.14L64.517,73.898L56.288,73.898L52.667,81.14C50.362,81.798 48.223,82.621 46.248,83.773L38.513,81.14L32.752,86.9L35.221,94.635C34.069,96.61 33.246,98.915 32.587,101.054L25.346,104.675L25.346,112.904L32.587,116.525C33.246,118.829 34.069,120.969 35.221,122.944L32.752,130.679L38.513,136.44L46.248,133.971C48.223,135.123 50.362,135.946 52.667,136.604L56.288,143.846L64.517,143.846L68.138,136.604C70.442,135.946 72.581,135.123 74.556,133.971L82.292,136.604L88.052,130.679L85.583,123.108C86.735,121.133 87.558,118.994 88.217,116.69L95.458,113.069L95.458,104.84L88.217,101.219C87.558,98.915 86.735,96.775 85.583,94.8Z" style="fill-rule:nonzero;"/>
            </g>
        </g>
        <g>
            <path d="M769.277,84.26C769.277,95.904 759.838,105.344 748.194,105.344C736.55,105.344 727.11,95.904 727.11,84.26C727.11,72.616 736.55,63.177 748.194,63.177C759.838,63.177 769.277,72.616 769.277,84.26Z" style="fill-rule:nonzero;"/>
            <path d="M799.321,113.25C794.05,110.615 787.725,112.459 785.09,117.73L775.866,135.124L735.28,109.56C733.699,108.506 731.854,107.979 729.746,107.979L684.944,107.979C680.991,107.979 677.565,110.088 675.72,113.514L658.59,145.139C655.691,150.146 657.799,156.734 662.806,159.37C664.388,160.16 666.232,160.688 667.814,160.688C671.503,160.688 675.193,158.579 677.037,155.153L691.269,129.063L706.818,129.063L660.171,216.031L616.423,216.031C610.625,216.031 605.881,220.775 605.881,226.573C605.881,232.371 610.625,237.115 616.423,237.115L666.496,237.115C670.449,237.115 673.875,235.006 675.72,231.58L694.168,197.583L724.475,225.782L722.103,278.754C721.576,284.552 726.056,289.559 731.854,289.823L732.381,289.823C737.916,289.823 742.659,285.343 742.923,279.808L745.558,221.829C745.822,218.667 744.504,215.768 742.132,213.659L716.569,189.941L743.45,139.868L774.021,159.106C776.393,160.688 779.555,161.215 782.454,160.424C785.353,159.633 787.725,157.789 789.043,155.153L803.537,127.481C806.436,122.474 804.592,116.149 799.321,113.25Z" style="fill-rule:nonzero;"/>
        </g>
        <g>
            <g transform="matrix(1.00397,0,0,1,45,429)">
                <path d="M189.525,34.125C189.525,45.723 180.123,55.125 168.525,55.125C156.927,55.125 147.525,45.723 147.525,34.125C147.525,22.527 156.927,13.125 168.525,13.125C180.123,13.125 189.525,22.527 189.525,34.125Z" style="fill-rule:nonzero;"/>
            </g>
            <g transform="matrix(1.00397,0,0,1,45,429)">
                <path d="M219.45,63C214.2,60.375 207.9,62.213 205.275,67.463L196.087,84.787L155.662,59.325C154.088,58.275 152.25,57.75 150.15,57.75L105.525,57.75C101.588,57.75 98.175,59.85 96.338,63.263L79.275,94.763C76.388,99.75 78.488,106.313 83.475,108.938C85.05,109.725 86.888,110.25 88.463,110.25C92.138,110.25 95.813,108.15 97.65,104.738L111.825,78.75L127.313,78.75L80.85,165.375L37.275,165.375C31.5,165.375 26.775,170.1 26.775,175.875C26.775,181.65 31.5,186.375 37.275,186.375L87.15,186.375C91.088,186.375 94.5,184.275 96.338,180.863L114.713,147L144.9,175.087L142.537,227.85C142.012,233.625 146.475,238.613 152.25,238.875L152.775,238.875C158.287,238.875 163.012,234.413 163.275,228.9L165.9,171.15C166.162,168 164.85,165.113 162.488,163.012L137.025,139.387L163.8,89.513L194.25,108.675C196.613,110.25 199.762,110.775 202.65,109.988C205.538,109.2 207.9,107.363 209.212,104.738L223.65,77.175C226.538,72.188 224.7,65.888 219.45,63Z" style="fill-rule:nonzero;"/>
            </g>
        </g>
        <g transform="matrix(1,0,0,1,87.5324,348)">
            <text x="0px" y="0px" style="font-family:'Calibri', sans-serif;font-size:43px;">Ex<tspan x="38.654px 56.836px " y="0px 0px ">ce</tspan>l.cpp</text>
            <g transform="matrix(1,0,0,1,539.401,0)">
                <text x="0px" y="0px" style="font-family:'Calibri', sans-serif;font-size:43px;">Ex<tspan x="38.654px 56.836px " y="0px 0px ">ce</tspan>l.e<tspan x="119.699px 137.188px " y="0px 0px ">xe</tspan></text>
            </g>
            <g transform="matrix(1,0,0,1,1.96992,355)">
                <text x="0px" y="0px" style="font-family:'Calibri', sans-serif;font-size:43px;">Ex<tspan x="38.654px 56.836px " y="0px 0px ">ce</tspan>l.e<tspan x="119.699px 137.188px " y="0px 0px ">xe</tspan></text>
            </g>
        </g>
    </g>
</svg>
