<svg width="1280" height="720" xmlns="http://www.w3.org/2000/svg" xmlns:xlink="http://www.w3.org/1999/xlink" overflow="hidden"><defs><clipPath id="clip0"><path d="M0 0 1280 0 1280 720 0 720Z" fill-rule="evenodd" clip-rule="evenodd"/></clipPath></defs><g clip-path="url(#clip0)"><rect x="0" y="0" width="1280" height="720" fill="#FFFFFF"/><rect x="117.5" y="52.5001" width="414" height="133" stroke="#2F528F" stroke-miterlimit="8" fill="#4472C4"/><text fill="#FFFFFF" font-family="Calibri,Calibri_MSFontService,sans-serif" font-weight="400" font-size="64" transform="translate(308.828 140)">a</text><rect x="117.5" y="303.5" width="414" height="133" stroke="#2F528F" stroke-miterlimit="8" fill="#4472C4"/><text fill="#FFFFFF" font-family="Calibri,Calibri_MSFontService,sans-serif" font-weight="400" font-size="64" transform="translate(307.328 391)">b</text><rect x="117.5" y="554.5" width="414" height="133" stroke="#2F528F" stroke-miterlimit="8" fill="#4472C4"/><text fill="#FFFFFF" font-family="Calibri,Calibri_MSFontService,sans-serif" font-weight="400" font-size="64" transform="translate(310.661 642)">c</text><rect x="820.5" y="52.5001" width="414" height="133" stroke="#ED7D31" stroke-miterlimit="8" fill="#ED7D31"/><text fill="#FFFFFF" font-family="Calibri,Calibri_MSFontService,sans-serif" font-weight="400" font-size="64" transform="translate(947.548 140)">1,<tspan x="63" y="0">2,</tspan><tspan x="126" y="0">3</tspan></text><rect x="820.5" y="303.5" width="414" height="133" stroke="#ED7D31" stroke-miterlimit="8" fill="#ED7D31"/><text fill="#FFFFFF" font-family="Calibri,Calibri_MSFontService,sans-serif" font-weight="400" font-size="64" transform="translate(947.548 391)">1,<tspan x="63" y="0">2,</tspan><tspan x="126" y="0">3</tspan></text><path d="M548.5 113.25 779 113.25 779 101.5 802.5 125 779 148.5 779 136.75 548.5 136.75Z" stroke="#2F528F" stroke-miterlimit="8" fill="#FFC000" fill-rule="evenodd"/><path d="M553.5 358.25 784 358.25 784 346.5 807.5 370 784 393.5 784 381.75 553.5 381.75Z" stroke="#2F528F" stroke-miterlimit="8" fill="#FFC000" fill-rule="evenodd"/><path d="M544.142 618.597 779.669 447.471 772.705 437.886 805.803 443.128 800.561 476.225 793.597 466.64 558.07 637.767Z" stroke="#2F528F" stroke-width="1.33333" stroke-miterlimit="8" fill="#FFC000" fill-rule="evenodd"/></g></svg>