<?xml version="1.0" encoding="UTF-8" standalone="no"?>
<!DOCTYPE svg PUBLIC "-//W3C//DTD SVG 1.1//EN" "http://www.w3.org/Graphics/SVG/1.1/DTD/svg11.dtd">
<svg width="100%" height="100%" viewBox="0 0 850 360" version="1.1" xmlns="http://www.w3.org/2000/svg" xmlns:xlink="http://www.w3.org/1999/xlink" xml:space="preserve" xmlns:serif="http://www.serif.com/" style="fill-rule:evenodd;clip-rule:evenodd;stroke-miterlimit:8;">
    <g>
        <rect x="0" y="0" width="1280" height="720" style="fill:white;"/>
        <path d="M303,157L496,157L496,127L556,187L496,247L496,217L303,217L303,157Z" style="fill:rgb(68,114,196);stroke:rgb(237,125,49);stroke-width:8px;"/>
        <g transform="matrix(1,0,0,1,379.563,195)">
            <text x="0px" y="0px" style="font-family:'Calibri', sans-serif;font-size:24px;fill:white;">jup<tspan x="30.844px 41.824px 49.605px 61.547px " y="0px 0px 0px 0px ">yter</tspan></text>
        </g>
        <g>
            <path d="M631.708,89.26L615.896,89.26L615.896,273.74L797.74,273.74L797.74,257.927L631.708,257.927L631.708,89.26Z" style="fill-rule:nonzero;"/>
            <rect x="758.208" y="89.26" width="39.532" height="152.855" style="fill-rule:nonzero;"/>
            <rect x="702.865" y="141.969" width="39.531" height="100.146" style="fill-rule:nonzero;"/>
            <rect x="647.521" y="189.406" width="39.531" height="52.709" style="fill-rule:nonzero;"/>
            <path d="M731.854,125.471L731.854,89.26L695.644,89.26L710.033,103.65L646.44,167.242L653.872,174.674L717.465,111.108L731.854,125.471Z" style="fill-rule:nonzero;"/>
        </g>
        <g>
            <g transform="matrix(1,0,0,1.00633,330,219)">
                <path d="M125.083,98.75L32.917,98.75L32.917,42.792L125.083,42.792L125.083,98.75ZM134.958,39.5C134.958,35.879 131.996,32.917 128.375,32.917L29.625,32.917C26.004,32.917 23.042,35.879 23.042,39.5L23.042,108.625L134.958,108.625L134.958,39.5Z" style="fill-rule:nonzero;"/>
            </g>
            <g transform="matrix(1,0,0,1.00633,330,219)">
                <path d="M88.875,115.208L88.875,116.854C88.875,117.842 88.217,118.5 87.229,118.5L70.771,118.5C69.783,118.5 69.125,117.842 69.125,116.854L69.125,115.208L3.292,115.208L3.292,118.5C3.292,122.121 6.254,125.083 9.875,125.083L148.125,125.083C151.746,125.083 154.708,122.121 154.708,118.5L154.708,115.208L88.875,115.208Z" style="fill-rule:nonzero;"/>
            </g>
        </g>
        <g>
            <path d="M427.598,54.39C420.685,54.39 415.254,48.794 415.254,42.046C415.254,35.298 420.85,29.702 427.598,29.702C434.51,29.702 439.942,35.298 439.942,42.046C439.942,48.794 434.346,54.39 427.598,54.39ZM455.413,34.31C454.754,32.006 453.931,29.867 452.779,27.892L455.413,20.156L449.487,14.231L441.752,16.865C439.777,15.713 437.638,14.89 435.333,14.231L431.712,6.99L423.483,6.99L419.862,14.231C417.558,14.89 415.419,15.713 413.444,16.865L405.708,14.231L399.783,20.156L402.417,27.892C401.265,29.867 400.442,32.006 399.783,34.31L392.542,37.931L392.542,46.16L399.783,49.781C400.442,52.085 401.265,54.225 402.417,56.2L399.783,63.935L405.544,69.696L413.279,67.063C415.254,68.215 417.394,69.038 419.698,69.696L423.319,76.938L431.548,76.938L435.169,69.696C437.473,69.038 439.612,68.215 441.588,67.063L449.323,69.696L455.248,63.935L452.615,56.2C453.767,54.225 454.754,51.921 455.413,49.781L462.654,46.16L462.654,37.931L455.413,34.31Z" style="fill-rule:nonzero;"/>
            <path d="M390.402,114.298C383.49,114.298 378.058,108.702 378.058,101.954C378.058,95.042 383.654,89.61 390.402,89.61C397.315,89.61 402.746,95.206 402.746,101.954C402.746,108.702 397.315,114.298 390.402,114.298ZM415.583,87.8L418.217,80.065L412.292,74.14L404.556,76.773C402.581,75.621 400.277,74.798 398.138,74.14L394.517,66.898L386.288,66.898L382.667,74.14C380.362,74.798 378.223,75.621 376.248,76.773L368.513,74.14L362.752,79.9L365.221,87.635C364.069,89.61 363.246,91.915 362.587,94.054L355.346,97.675L355.346,105.904L362.587,109.525C363.246,111.829 364.069,113.969 365.221,115.944L362.752,123.679L368.513,129.44L376.248,126.971C378.223,128.123 380.362,128.946 382.667,129.604L386.288,136.846L394.517,136.846L398.138,129.604C400.442,128.946 402.581,128.123 404.556,126.971L412.292,129.604L418.052,123.679L415.583,116.108C416.735,114.133 417.558,111.994 418.217,109.69L425.458,106.069L425.458,97.84L418.217,94.219C417.558,91.915 416.735,89.775 415.583,87.8Z" style="fill-rule:nonzero;"/>
        </g>
        <g>
            <path d="M113.77,236.23L79.51,202L113.77,167.77L122.23,176.23L96.49,202L122.23,227.77L113.77,236.23Z" style="fill-rule:nonzero;"/>
            <path d="M194.23,236.23L185.77,227.77L211.51,202L185.77,176.23L194.23,167.77L228.49,202L194.23,236.23Z" style="fill-rule:nonzero;"/>
            <path d="M133.904,235.966L162.606,166.707L173.692,171.302L144.99,240.56L133.904,235.966Z" style="fill-rule:nonzero;"/>
            <path d="M34,94L34,280L274,280L274,94L34,94ZM241,112C244.314,112 247,114.686 247,118C247,121.314 244.314,124 241,124C237.686,124 235,121.314 235,118C235,114.686 237.686,112 241,112ZM220,112C223.314,112 226,114.686 226,118C226,121.314 223.314,124 220,124C216.686,124 214,121.314 214,118C214,114.686 216.686,112 220,112ZM199,112C202.314,112 205,114.686 205,118C205,121.314 202.314,124 199,124C195.686,124 193,121.314 193,118C193,114.686 195.686,112 199,112ZM256,262L52,262L52,142L256,142L256,262Z" style="fill-rule:nonzero;"/>
        </g>
        <g transform="matrix(1,0,0,1,67.6988,337)">
            <text x="0px" y="0px" style="font-family:'Calibri', sans-serif;font-size:43px;">Not<tspan x="64.374px 85.769px " y="0px 0px ">eb</tspan>ook</text>
        </g>
    </g>
</svg>
