<?xml version="1.0" encoding="UTF-8"?>
<!DOCTYPE svg PUBLIC "-//W3C//DTD SVG 1.1//EN" "http://www.w3.org/Graphics/SVG/1.1/DTD/svg11.dtd">
<svg version="1.1" id="Layer_1" xmlns="http://www.w3.org/2000/svg" xmlns:xlink="http://www.w3.org/1999/xlink" x="0px" y="0px" viewBox="-8.5882 139.8356 1381.5881 1526.4631" enable-background="new -8.5882 139.8356 1381.5881 1526.4631" xml:space="preserve">
<path d="M1338.48,784.59c-3.6799-8.15-7.04-16.54-12.27-23.85c-4.85-6.97-10.7-13.69-18.46-17.46c-2.1801-1.2-5.04-1.34-6.46-3.6  c-3.41-4.2701-6.86-8.5101-10.24-12.8c-0.99-1.08-1.04-2.63-1.3301-3.9601c-1.1-6.51-3.22-13.0499-7.4-18.26  c-3.2799-4.2-7.85-7.1899-12.6899-9.2999c-11.6-4.8199-24.26-6.08-36.12-10.0599c-32.71-13.78-66.33-25.25-99.9301-36.65  c-3.5199-0.77-5.3099-4.14-7.75-6.4301c-1.9099-2.28-4.8999-4.02-5.0699-7.29c-2.3201-12.6899-11.7-22.5699-21.75-29.95  c-7.92-5.8-18.0601-9.61-27.9301-7.45c-9.86,2.0699-18.1899,8.55-24.74,15.95c-4.1699,6.02-8.49,11.98-13.59,17.26  c-21.01,21.8101-49.38,34.9-69.8301,57.3201c-4.6099,4.98-8.4399,10.59-12.3398,16.1199c-2.8901-6.1299-5.1801-12.8199-10.03-17.75  c-3.3801-3.5599-7.8101-5.83-12.17-7.9399c-6-32.04-22.84-60.5601-40.23-87.63c-6.15-9.21-11.29-19.0399-17.0699-28.47  c4.95,5.0199,12.1599,6.12,18.5798,8.0199C894.99,575.61,900.39,581.72,908.03,583.3101c5.1799,1.1299,9.83-2.53,12.21-6.8301  c4.0801-0.12,8.3201-0.45,11.9399-2.53c8.8-5.03,16.8-12.1,21.1201-21.4299c5.9399-12.5901,6.4399-26.8101,7.3799-40.45  c1.5-3.2401,4.05-6.2001,4.1201-9.9701c0.79-6.9501-4.75-12.27-9.6201-16.3199c-11.2799-9.22-16.3099-23.3101-23.51-35.5  c-10.3599-18.1201-18.3999-38.15-19.0599-59.26c-0.4301-4.3201,0.7999-8.71-0.14-12.97  c-4.6537-12.8611-11.1006-25.1147-19.4387-35.9502c2.7108-2.4583,5.1257-5.1963,7.1016-8.2949  c1.2043-1.8892,2.3093-3.8065,3.0558-5.813c0.9816-2.2175,1.5715-4.6879,3.2094-6.5046c4.1995-0.3413,7.8745-2.3984,11.3787-4.8074  c3.8191-2.6255,7.0898-5.8645,9.8901-9.5132c2.9021-3.7817,5.4388-7.7244,5.9434-12.4298c0.0554-0.5166,0.3428-0.609,0.7771-0.6837  c4.0564-0.6982,7.681-2.6024,11.0952-4.8511c3.5159-2.3154,6.652-5.1311,9.4932-8.2297c3.5217-3.8408,6.772-7.8452,8.4971-12.7257  c0.2134-0.6036,0.5813-0.9493,1.2251-1.1598c1.0547-0.3451,2.1023-0.7476,3.1133-1.2188c4.9388-2.302,9.3008-5.4854,13.3317-9.1067  c4.8058-4.3176,9.2704-8.9304,12.547-14.4678c0.2858-0.4829,0.5953-0.9249,1.137-1.183c4.6422-2.2115,8.8693-5.0565,12.9103-8.254  c5.4203-4.2888,10.4772-8.9216,14.9891-14.1038c1.3414-1.5408,2.7041-2.9337,4.5431-3.9785  c3.548-2.0159,6.8331-4.4419,10.0667-6.9524c4.0814-3.1688,7.98-6.5396,11.8915-9.8979c2.4264-2.0834,4.5754-4.5334,7.1724-6.3591  c7.3435-5.1626,14.4647-10.601,21.4495-16.2205c1.0552-0.8489,2.2607-1.6033,2.9484-2.8402  c-3.6549,1.7119-6.9889,3.9242-10.4335,5.9379c-4.1078,2.4014-8.2285,4.78-12.3221,7.2061  c-3.4052,2.0178-6.8394,3.9968-10.1504,6.1638c-3.3436,2.1882-6.7384,4.3184-9.8533,6.844  c-0.7522,0.6099-1.6018,1.0493-2.4799,1.449c-2.2522,1.0253-4.5188,2.0232-6.7329,3.1321  c-4.4999,2.2535-8.9495,4.5945-13.2153,7.3127c-3.5851,2.2847-7.1663,4.5647-10.3577,7.3705  c-1.4091,1.2389-2.8367,2.0917-4.6598,2.6757c-11.016,3.5283-21.2509,8.6321-29.8859,16.6471  c-1.532,1.4221-2.9326,2.4406-5.1394,2.6852c-4.3541,0.4827-8.5062,2.1643-12.5461,4.0012  c-7.2595,3.3008-13.9907,7.3988-19.2469,13.5596c-0.3053,0.3578-0.6251,0.5713-1.1075,0.5831  c-4.0436,0.0988-7.9906,0.9066-11.9119,2.2325c-8.6975,2.9406-16.4524,7.3086-22.434,14.491  c-0.3867,0.4644-0.7882,0.7014-1.4121,0.7034c-4.0535,0.012-8.056,0.4327-12.0795,1.6162c-2.4304,0.7148-4.7765,1.562-7.0334,2.5538  c-4.9307-4.5865-11.624-6.3844-17.6759-8.9891c-23.83-9.53-49.62-12.59-75.1-13.45c-8.3501-0.27-16.65-1.24-24.97-1.85  c-10.71-0.9401-21.5801-1.9301-31.77-5.58C718.22,246.47,709.36,240.49,700.76,234.46c4.36,4.9399,9.35,9.3,14.46,13.4399  c9,7.1201,20.0701,10.8801,31.04,13.76c-18.8101-1.25-37.3301-5.3899-55.29-10.97c-11.01-3.1699-23.03-5.4199-34.23-1.8799  c-10.0801,3.2999-17.5801,11.5299-23.11,20.26c6.65-6.9202,14.58-13.2201,24.27-14.99c15.12-2.9102,30.0399,2.5898,44.21,7.2599  c-11.2799-1.42-22.76-4.5199-34.13-2.17c-8.9099,1.66-16.1899,7.98-21.1699,15.29c4.76-4.04,10.02-7.76,16.1399-9.3999  c9.8501-2.8201,20.23-0.8801,30.0801,0.98c-13.29,3.0499-26.6201,7.21-37.89,15.1199c-9.58,6.6001-21.34,10.7001-33.08,9.1801  c-7.3901-0.6901-14.25-3.6-21.01-6.46c4.22,4.15,8.83,8.12,14.3099,10.5c8.2101,3.65,17.37,2.23,26.04,1.97  c-9.59,2.53-19.5699,5.4601-29.55,3.4601c-11.0299-1.9601-19.9-9.3101-28.35-16.1501c4.85,6.92,9.37,14.3701,16.12,19.6501  c6.41,4.98,14.63,6.5599,22.5399,7.1399c-6.6499,0.5801-13.5898,0.76-19.8899-1.79c-7.5701-2.8499-13.17-8.8999-19.41-13.76  c5.75,7.5601,11.7301,15.5801,20.52,19.79c6.0299,3.1001,12.87,3.6301,19.4401,4.8101c-4.05,0.34-7.9301,1.62-11.9102,2.39  c-14.4199,3.17-29.0399,6.2599-42.5,12.5199c-14.24,6.53-26.3499,17.0601-36.1099,29.1901c7.3999-6.48,14.8099-13.12,23.5499-17.75  c6.78-3.64,13.9401-6.63,21.34-8.76c-16.0599,8.0599-30.97,18.7301-43.21,31.9401c-7.45,8.33-14.08,18.4199-14.6599,29.9099  c-0.54,10.23,5.1499,19.76,12.7799,26.1801c-4.09-5.99-8.5199-12.62-7.85-20.23c0.89-9.2001,7.0701-16.61,12.4399-23.6901  c-3.6899,9.71-7.71,20.45-4.7,30.89c2.8,9.33,11.9399,14.58,20.49,17.8199c-5.6599-4.0499-11.6599-8.8899-13.3101-16.0199  c-1.5699-7.01,2.24-13.76,6.7301-18.84c9.95-10.99,23.22-18.0901,36.15-24.9501c-8.8701,9.38-19.99,17.4701-24.9401,29.8199  c-3.9,10.03-0.14,20.8501,4.6901,29.8301c-1.1001-6.3101-3.0901-12.8501-0.99-19.2c3.03-9.7201,11.5699-16.0801,18.09-23.41  c-0.92,6.39-2.53,12.65-4.37,18.8199c-3.97,12.65-9.25,25.3501-18.3501,35.22c-5.5699,6.1001-13.8099,10.6301-22.2899,9.01  c-10.35-1.99-17.91-9.9399-24.83-17.27c4.6799,7.0901,9.5,14.73,17.1199,18.99c7.1602,3.92,15.5701,2.8201,23.27,1.5901  c-9.48,4.52-20.73,8.4199-31.01,4.14c-10.48-4.4901-15.6799-15.67-18.8398-25.9501c0.8398,10.74,3.2,22.5901,11.5499,30.14  c8.48,7.3,20.1801,8.3199,30.86,9.16c-8.1799,0.54-16.74,1.39-24.5901-1.54C510.8,467.05,505.63,462.0701,500.42,457.53  c6.2599,10.71,17.4899,17.86,29.5299,20.24c13.96,2.96,28.47-0.3401,41.04-6.66c-3,6.0499-8.45,10.7899-15.04,12.4601  c-12.78,3.3298-26.6599,2.6299-38.7,8.6299c-8.52,4.41-12.39,14.0801-14.11,23.01c3.27-7.48,9.0399-14.1,16.89-16.86  c11.04-3.85,22.97-3.0499,34.46-2.85c-6.8999,1.6599-13.87,3.13-20.5601,5.51c-7,2.45-14.74,5.96-17.8499,13.1899  c-2.7001,7.15,0.5898,14.54,3.6099,21c-0.1599-4.0599-1.74-8.2-0.0699-12.1499c2-5.53,8-7.98,13.35-9.02  c7.64-1.42,15.47-1.5701,23.23-1.3701c-7.6899,2.53-15.6199,6.6702-19.49,14.1401c-4.09,7.6899-2.9399,16.6799-2.24,24.98  c-1.75,7.6399-3.51,15.3199-4.1599,23.1499c-2.17,19.51,1.2,40.1101,11.9099,56.8101c8.1001,12.55,19.46,23,32.46,30.3201  c-7.5999-6.6901-14.76-14.0901-19.8599-22.91c-6.4001-10.79-8.04-23.83-6.51-36.13c0.6599-9.37,3.47-18.42,4.22-27.77  c1.51,0.96,1.1499,2.78,0.21,4.02c-0.99,15.3201-2.0701,31.21,3.16,45.95c5.23,15.1001,17.15,26.71,29.98,35.67  c-4.52-4.41-9.01-8.91-12.62-14.11c-7.3-9.97-11.26-22.3601-10.73-34.73c0.6399-17.6801,7.76-34.1401,14-50.41  c-2.13,13.7699-6.54,27.2899-6.3601,41.35c0.1201,9.6899,3.3901,19.0901,8.25,27.39c3.8101,7.17,9.6702,13.1,12.6201,20.75  c3.76,8.6901,5.1599,19.4-0.15,27.7799c-6.01,9.4701-18.26,12.9601-28.92,11.53c-10.34-1.1599-19.6799-6.5499-27.21-13.53  c4.54,6.1001,8.6699,13.01,15.49,16.8601c6.7,3.6599,14.52,3.96,21.89,5.24c-18.25,1.52-36.58,5.14-53.2999,12.8101  c-7.02,3.48-14.4401,7.75-18,15.08c-2.51,5.0299-1.1901,11.12,1.8899,15.6c4.9,7.24,12.17,12.51,19.5801,16.96  c-5.1901-4.73-11.51-9.36-13.23-16.54c-1.0901-4.9,3.2799-8.71,7.3298-10.44c10.2101-4.54,21.6001-5.1799,32.5801-6.09  c6,0.0599,12.04-1.26,18-0.2001c-6.25,0.5801-12.47,1.74-18.46,3.6001c-3.3201,1.1899-6.98,2.6899-8.8601,5.8699  c-1.48,2.9801-0.1699,6.4301,1.6801,8.9401c3.6801,5.07,8.79,8.88,13.92,12.38c-3.1899-3.74-5.9299-8.01-6.5701-12.99  c0.91-5.03,5.5801-7.82,10.1201-9.1499c14.5299-4.27,29.9199-2.7301,44.6899-5.52c12.21-2.4401,25.0801-7.8901,31.6899-19.0601  c4.8201-7.9,4.67-17.53,3.3701-26.37c3.3899,8.16,5.3899,17.4501,2.3999,26.0599c-3.8199,11.78-14.35,19.8401-25.26,24.72  C603.4,740.38,589.8301,742.29,576.46,743.51c16.53,0.09,33.3101,1.1,49.5601-2.73c8.6799-1.76,16.8201-5.3301,24.9099-8.8301  c-8.0499,8.27-17.4399,16.17-29.08,18.4501c-8.1901,2.03-16.7,0.92-24.98,1.9c8.34,1.18,16.6,3.43,25.1,3.16  c9.0701,0.23,17.76-2.75,26.26-5.55c-6.73,6.6201-14.21,13.9301-24.09,14.91c-7.35,0.91-14.41-1.72-21.5699-2.81  c6.77,3.52,13.74,7.16,21.4399,8.04c8.25,1.2,16.35-1.33,24.34-3.02c-30.5,42.67-69.87,78.54-113.5699,107.33  c-11.3201,1.54-22.72,2.62-33.9,5.06c-13.5,2.97-27.21,7.43-37.9401,16.48c-4.72,4.48-10.5,7.56-15.7699,11.3199  C431,918.31,414.62,930.03,403.2,946.26c-9.29,13.06-14.43,28.52-17.79,44.06c-11.13,1.44-22.33-0.8-32.96-3.97  c-16.87-5.14-32.9-12.75-48.11-21.63c-11.63-7.02-23.11-14.64-32.57-24.46c-3.84-5.08-9.66-7.94-14.77-11.5  c-16.28-10.4-33.83-19.81-53.1-23c-12.34-2.09-25.51-0.55-36.5,5.65c-12.44,6.9-21.61,18.38-28.58,30.54  c-8.89,15.52-14.76,32.56-19.65,49.7c-11.28-0.85-23.54-1.14-33.14-7.9301c-8.66-6.34-13.09-16.49-17.65-25.85  c2.19,8.38,3.42,17.26,7.98,24.8c2.96,4.51,7.03,8.23,11.51,11.21c-11.64-4.75-23.76-11.94-28.55-24.21  c-4.58-11.51-1.81-23.94-1.7-35.87c-1.62,8.01-4.08,15.86-5.01,24.02c-1.47,10.9-0.76,22.72,5.45,32.15  c7.45,11.3101,19.34,18.7,31.14,24.8c-8.76-1.54-17.55-4.09-25.06-8.99c-6.74-4.42-11.91-10.69-17.59-16.3  c8.1,11.57,17.02,23.18,29.31,30.59c11.63,7.07,25.12,10.04,38.28,12.8699c3.21,24.77,11.06,48.6101,19.73,71.9301  c-13.29,1.39-26.85,1.02-39.91,4.21c-7.38,1.7101-14.61,5.8301-18.24,12.7201c-4.11,7.87-5.26,17.1599-4.08,25.8999  c1.14-10.9099,7.16-22.6599,18.31-26.0599c11.56-3.49,23.85-2.48,35.77-3.05c-10.91,3.64-21.7,9.03-29.47,17.73  c-4.22,4.65-7.08,11.3501-5.03,17.6101c2.29,7.38,8.94,12.1599,15.2599,15.98c-3.53-4.23-7.24-9.23-6.63-15.0601  c1.16-7,7.39-11.5599,13.22-14.74c11.53-5.79,24.32-8.9,37.13-10.04c3.45,5.3,7.28,10.3601,10.2,15.9901  c2.63,5.0399,3.99,10.61,5,16.1799c-8.22,0.8101-16.42,1.84-24.55,3.27c-12.96,2.28-26.36,5.9299-36.52,14.74  c-10.03,8.54-15.47,21.24-17.97,33.9301c4.23-8.2201,9.45-16.1901,16.97-21.76c11.24-8.5701,25.46-11.61,39.1-14.04  c-11.19,5.25-23.51,9.58-31.92,19.08c-7.27,8.7101-10.66,19.87-13.43,30.6801c6.11-11.8,13.95-23.41,25.65-30.26  c12.7401-7.41,27.55-9.6901,41.7401-12.84c-0.76,7.12-1.65,14.58-5.67,20.71c-4.2,6.49-10.26,11.45-15.82,16.73  c5.52-2.33,11.11-4.85,15.7-8.79c4.62-4.2599,7.59-9.8799,11.04-15.0499c-1.95,8.95-4.1,17.97-8.14,26.25  c-3.13,6.4399-7.7,12.0499-12.64,17.1799c-22.48-6.59-45.36-14.6899-69.14-13.12c-19.06,1.24-36.87,11.24-49.11,25.6901  c10.26-7.4501,21.66-14.0601,34.41-15.86c13.4901-1.76,27.07,0.64,40.27,3.3099c-17.38,0.24-35.78-0.5399-51.71,7.64  c-15.14,7.9401-24.94,22.8301-32.68,37.55c9.09-11.97,19.39-24.26,33.9-29.64c13.31-5.05,27.94-2.22,41.06,1.98  c9.27,3.02,18.51,6.26,27.38,10.3199c-20.75,1.27-41.8,3.02-61.57,9.88c-10.61,3.8601-21.45,9.5601-27.44,19.54  c-4.96,8.03-5.14,18.08-2.9,27.02c1.9301,7.3099,4.92,14.35,8.89,20.79c-3.36-8.8201-6.4-18.49-4.11-27.9601  c1.94-7.74,8.21-13.4399,15.06-17c7.04-3.62,14.54-6.4099,22.26-8.1699c-8.92,3.84-17.81,8.8199-23.79,16.6799  c-4.76,6.13-6.29,14.39-4.65,21.92c1.55,8.6,6.19,16.15,10.7,23.47c-1.07-4.41-2.85-8.65-3.39-13.1799  c-0.94-6.15-0.39-12.9301,3.45-18.05c4.78-6.55,12.99-9.3,20.67-10.59c14.88-2.36,29.94-0.11,44.7,2.0399  c-10.32,0.52-20.8,0.5801-30.85,3.3c-7.23,1.98-14.5699,5.66-18.5099,12.33c-4.15,6.98-3.66,15.5601-2.13,23.24  c1.08-4.7899,2.69-9.6899,6.21-13.26c4.64-4.83,11.58-6.61,18.09-6.61c13.36-0.2999,26.08,4.37,38.63,8.36  c-7.9-0.7599-15.83-2.3099-23.79-1.4099c-9.2599,0.73-17.77,4.9199-25.58,9.6899c3.63-0.58,7.08-1.87,10.66-2.63  c10.52-2.4199,21.52-2.7899,32.15-0.9c10.1,1.76,19.79,5.2301,29.32,8.9c12.99,4.6901,26.16,8.9401,39.59,12.1901  c21.83,5.11,44.87,8.13,66.98,2.9199c16.34-3.62,31.39-12.4199,42.78-24.6499c11.72-12.6101,20.19-27.99,26.16-44.05  c-2.5,10.99-6.3,21.72-11.18,31.89c-6.9301,14.73-17.79,28.01-32.28,35.78c-17.82,9.7899-38.55,12.0299-58.54,12.61  c23.69,1.47,48.02,0.11,70.61-7.67c17.81-6.09,33.86-17.87,43.84-33.96c11.7-18.3201,15.63-40.25,17.34-61.5801  c2.68,10.8601,5.55,21.89,4.95,33.1801c-0.36,11.36-4.9,22.09-10.56,31.78c-2.04,3.34-3.75,6.95-6.55,9.75  c-0.53,0.4299-0.44,3.0499,0.48,1.7c1.76-3.75,4.84-6.61,7.16-9.99c11.55-15.63,19.58-34.5599,19.33-54.24  c0.1-20.22-7.89-39.38-17.75-56.66c3.54-13.39,4.68-27.65,1.8-41.27c-2.66-12.5099-9.69-23.9099-19.31-32.2699  c16.14-25,22.37-55.74,18.95-85.17c-0.65-2.65,0.88-4.98,2-7.23c0.67,9.7999,0.9,19.85,4.28,29.2c3.19,8.87,9.37,16.34,16.55,22.3  c-4.93-8.9601-9.18-18.66-9.87-28.99c-0.65-11,2.8-21.73,6.79-31.8301c1.63,11.4,3.76,23.1001,9.88,33.0601  c2.79,4.21,4.23,9.08,6.37,13.62c7.4,16.34,16.99,31.54,26.22,46.88c2.1,10.86,9.66,19.37,16.6,27.5499  c4.37,5.3,9.3201,10.29,12.4,16.51c0.7599,1.03,0.0699,2.2201-0.5601,3.1101c-18.3099,27.85-33.29,57.6799-49.0099,87.0199  c-6.83,7.8501-15.25,15.4-17.6,26.01c-2.24,9.78,2.89,19.13,8.33,26.86c-5.52,6.8401-11.67,13.7101-14.23,22.3  c-2.64,9.98,3.08,19.39,7.97,27.63c2.7,3.78,3.81,8.33,5.61,12.55c8.34,20.4299,18.82,39.8999,29.79,59.0199  c1.62,2.8401,3.58,5.5701,4.45,8.78c9.37,30.8201,21.13,60.8201,31.5199,91.29c0.79,2.51,0.52,5.1899,0.8101,7.7999  c0.67,7.5601,3.03,15.27,8.1899,21.02c3.99,4.5801,9.5801,7.4301,15.3901,8.9501c0.1799,8.5299,1.5499,17.02,3.8099,25.25  c0.5,2.85,3.64,3.7999,6.0399,4.59c7.8101,2.14,15.9701,2.7,24.05,2.75c8.92-0.01,18.12-0.05,26.5901-3.2  c0.6699-8.39-1.3301-17.01-5.8501-24.13c-3.8101-6.2101-9.1299-11.3401-14.9199-15.6801c-0.3601-5.86-0.75-12.08-4.0701-17.12  c-5.52-8.24-14.6599-12.8-21.26-20c-10.9199-10.92-17.35-25.3199-22.29-39.73c-4.25-12.4401-8.75-24.8-12.7899-37.3  c-3.98-12.1899-7.9301-24.53-9.26-37.34c-1.36-10.74-0.5699-21.61,0.9401-32.29c29.33,38.8201,57.8099,78.27,86.71,117.41  c1.54,1.9,1.49,4.49,2.1299,6.77c2.27,9.62,6.01,19.6,13.9302,26.01c5.97,5.02,14.0698,6.53,21.6799,6.28  c1.3201,8.2599,4.51,16.1699,9.03,23.2c2.4299,2.75,6.0699,4.03,9.51,5.05c10.99,2.8999,22.5499,2.7,33.77,1.5699  c5.22-0.97,11.0999-1.36,15.23-5.0699c-2.3601-6.6901-6.9401-12.25-11.41-17.6101c-7.2301-8.5-15.34-16.33-24.5599-22.63  c-0.9302-0.6799-2.1901-1.33-2.1501-2.6499c-0.49-7.9301-1.2899-16.8201-7.22-22.76c-6.87-6.6901-16.59-8.8401-24.78-13.3201  c-17.2-15.61-31.5499-34.08-44.5499-53.24c-21.15-31.49-38.51-65.27-56.75-98.46c-1.2999-1.58,0.6801-2.92,1.39-4.23  c10.88-15.53,23.6599-29.7001,38.1499-41.9301c4-3.88,9.3201-5.77,13.9501-8.71c9.76-5.54,19.36-12.41,24.91-22.42  c4.03-7.01,6.1299-14.89,7.7-22.75c7-5.87,14.0901-12.46,17.21-21.2899c2.99-8.6801,2.3301-18,2.5901-27.02  c8.45-7.36,17.84-14.27,23.47-24.2001c5.4399-10.46,5.64-22.5699,6.64-34.0599c12.45-6.1801,25.11-13.2001,33.9301-24.24  c6.97-8.66,9.95-19.6801,11.6099-30.4701c1.79-12.08,2.7101-24.2699,4.3701-36.37c43.6199,0.4401,87.3199-10.95,125.0399-32.8899  c33.05-19.0201,61.39-45.4901,84.76-75.48c25.9601-33.45,46.15-71.14,61.5499-110.51c13.9501,1.07,29.4901,2.2,41.6802-5.99  c8.0798-5.36,13.3099-13.71,18.6899-21.53c10.61-11.39,22.2-21.83,33.1299-32.91c27.2701-27.43,53.42-56.29,84.2501-79.87  c23.34,19.04,44.5299,41.67,57.51,69.12c0.7899,4.8,1.1,9.68,2.1799,14.43c1.75,9.11,5.8301,17.53,10.35,25.56  c-1.5699,2.65-3.4299,5.21-4.33,8.18c-1.5,4.08,0.62,8.17,1.6,12.1c-5.8199,3.97-8.7,11.16-8.38,18.06  c0.27,8.46,3.4501,16.94,9.0901,23.29c3.24,3.22,7.0199,5.83,10.73,8.48c4.72,3.17,9.77,6.5,15.6,6.9  c4.6899,0.28,8.27-3.49,10.14-7.41c4.47-9.25,6.12-19.51,8.39-29.44c5.11-4.04,9.12-10.02,8.98-16.75  c-0.0601-9.88-5.72-18.5099-11.38-26.17c-1.96-3.35-2.89-7.18-4.47-10.71c-13.01-33.2599-31.5801-63.92-50.66-93.98  c17.37,4.4001,34.98,8.3401,51.58,15.23c6.8101,3.0601,13.8201,6.5,18.66,12.3801c4.21,5.11,8.49,10.7499,14.87,13.23  c6.2,2.18,12.78,0.54,19.0699-0.38c0.13,8.01-0.4099,16.59,3.51,23.89c1.5901,3.11,4.75,4.89,7.9701,5.95  c1.4299,9.03,2.62,18.52,7.5199,26.44c3.7101,6.21,10.52,9.66,17.29,11.54c10.03,2.81,20.71,5.02,31.1,2.94  c4.2301-0.76,8.3501-3.88,8.74-8.41C1344.0601,797.85,1340.98,791.09,1338.48,784.59z M867.4,555.8301  c-6.5699-11.1001-13.13-22.2201-19.4601-33.4601c6.5901,4.6801,13.66,8.64,20.4001,13.09  C866.6899,542.0701,865.8,549.12,867.4,555.8301z"/>
<head xmlns=""/></svg>