<?xml version="1.0" encoding="UTF-8"?>
<!DOCTYPE svg PUBLIC "-//W3C//DTD SVG 1.1//EN" "http://www.w3.org/Graphics/SVG/1.1/DTD/svg11.dtd">
<svg version="1.1" id="Layer_1" xmlns="http://www.w3.org/2000/svg" xmlns:xlink="http://www.w3.org/1999/xlink" x="0px" y="0px" viewBox="0 0 1929.041 1653.499" enable-background="new 0 0 1929.041 1653.499" xml:space="preserve">
<g>
	<path opacity="0.96" enable-background="new    " d="M1468.543,39.949c10.906-8.785,25.186-19.653,35.544-8.671   c18.369,17.171-6.198,63.773-66.279,94.131c-1.807,0.936-3.733,2.012-4.174,4.174c9.241-0.247,19.127-0.85,27.551,3.658   c23.92,17.383-5.55,60.017-44.698,81.146c1.087,4.185,5.314,7.068,5.228,11.629c2.014,23.896-62.351,56.198-92.958,65.59   c-2.109,0.699-4.518,1.033-5.938,2.905c31.008,3.377,32.178,23.701,14.867,36.318c-31.037,22.615-43.239,20.061-51.53,24.678   c-0.258,0.409-0.764,1.216-1.022,1.624c7.19,2.494,158.409,16.106,347.95,8.531c23.241-4.194,348.239-4.635,245.492,80.092   c-6.099,5.411-14.308,7.369-22.107,8.832c2.184,3.819,5.411,7.165,6.53,11.532c3.968,22.944-29.325,34.528-52.466,37.846   c2.294,6.634,6.939,10.439-3.12,23.344c-32.75,27.582-78.9,30.515-90.763,32.489c0.839,2.636,4.066,2.496,6.207,3.507   c24.93,6.596,26.486,39.044-54.682,52.831c-14.179,2.065-28.54,3.109-42.859,2.657c0.85,3.884,2.765,7.616,2.603,11.672   c-8.982,25.461-99.352,25.517-126.081,22.301c-1.625-0.172-3.238-0.28-4.83-0.355c2.999,3.729,15.246,13.461,11.683,24.625   c-4.135,30.03-72.464,16.207-104.587,5.443c0.488,30.135-45.712,26.159-76.703,23.517c-2.21,11.61-9.382,10.911-23.742,13.609   c-15.795,2.398-142.691-10.205-139.55-49.453c3.163,0.129,6.046,1.528,8.617,3.324c19.469,13.685,78.501,27.664,99.068,31.187   c14.846,2.55,29.95,2.152,44.957,1.883c-0.054-0.613-0.151-1.84-0.204-2.453c-14.347-3.616-47.218-9.747-80.705-36.695   c-3.303-2.528-4.981-6.96-3.066-10.865c18.986,4.779,85.259,45.303,146.403,38.534c5.971-1.173,12.253-2.765,16.933-6.917   c5.86-13.848-62.688-27.794-66.935-42.547c21.512-8.669,131.218,53.289,164.831,32.994c7.349-5.659,3.836-10.976-4.54-19.558   c-21.001-19.353-45.839-14.676-51.53-28.411c12.191-3.062,51.432,6.201,90.796,8.488c61.978,2.172,98.76-6.052,88.397-15.136   c-13.585-13.383-4.654-0.942-88.515-35.167c-6.304-3.13-13.598-5.734-17.481-12.016c3.765-2.679,8.52-1.269,12.716-0.667   c68.287,10.895,85.13,42.927,172.178,21.483c36.803-10.81,47.441-21.093,11.877-35.415c-3.217-1.334-6.713-0.204-9.994,0.065   c-58.337,8.726-102.332-16.556-102.07-24.044c1.716-3.845,23.699,4.672,34.963,6.39c36.941,5.826,42.088,3.402,72.916,1.667   c61.211-6.019,50.133-6.772,71.668-13.383c9.601-3.808,35.19-15.888,27.379-22.591c-10.022-9.338-20.75,0.823-52.003-10.37   c-42.653-12.287-74.71-15.724-84.631-26.357c10.536-7.662,67.051,5.537,79.059,8.262c8.37,1.84,16.094,5.755,24.399,7.821   c33.422,7.726,100.058-5.791,80.543-28.777c-7.826-7.595-1.729-3.88-27.432-8.036c-47.447-10.624-71.824-22.004-107.513-39.104   c-0.269-0.538-0.786-1.603-1.044-2.13c30.11-0.514,136.341,60.608,167.187,11.167c25.452-41.415-230.036-46.048-288.007-38.545   c-69.66,4.135-108.951-2.936-243.223-7.627c-118.177-5.667-84.563-26.703-184.517,15.61   c-104.274,45.62-96.544,71.704-168.069,139.582c-56.729,53.173-91.375,47.346-115.732,53.143   c-34.279,7.361-69.213,27.172-90.408,29.95c-5.519,8.714-13.985,16.395-24.463,18.159c-0.133,9.107,0.027,20.808-18.536,30.843   c1.531,51.859-11.091,60.333-27.787,72.357c3.701,4.152,8.004,7.735,11.435,12.135c14.423,17.154,8.459,21.66,30.563,27.647   c4.755,1.517,9.66-0.506,14.501,0.312c-6.616-7.66-14.125-16.868-11.909-27.734c3.991,0.484,5.519,4.551,7.799,7.283   c17.536,24.573,35.877,27.862,56.823,31.811c-1.313-2.279-12.811-18.009-18.718-22.537c-2.862-2.442-6.508-4.551-7.498-8.456   c24.426-1.261,28.462,28.711,47.732,33.833c14.706,3.819,29.595-1.71,43.666-5.626c-0.032-0.602-0.108-1.797-0.151-2.399   c-14.64-9.922-39.044-39.295-34.199-51.272c12.992,0.512,37.065,42.814,64.547,52.251c12.544,4.389,26.023,5.615,39.234,4.776   c-2.905-4.152-8.262-5.304-12.059-8.423c-20.395-13.014-35.153-38.583-31.402-48.657c1.646,0.538,2.84,1.797,3.625,3.335   c34.514,58.938,99.2,67.463,111.375,50.045c-17.184-12.495-26.65-25.061-26.195-46.495c0.226-2.216,1.667-4.023,2.732-5.906   c5.594,2.399,7.95,8.445,10.639,13.469c16.681,34.605,66.656,55.639,83.007,34.608c-8.692-3.937-17.288-8.348-24.743-14.362   c-15.361-12.85-29.893-42.873-20.537-53.111c5.636,3.205,11.125,19.692,24.851,34.877c26.693,30.337,99.84,49.477,87.439,0.678   c-54.741-14.361-60.674-25.011-77.198-44.322c-4.669-5.82-10.736-11.92-9.725-20.074c11.97,2.303,28.584,22.363,44.516,31.574   c34.53,20.597,68.018,26.665,85.804,24.431c22.007-4.618,15.983-15.386,16.061-26.324c5.222,2.179,6.749,12.527,6.487,18.245   c0.204,3.292-2.324,5.852-4.066,8.391c-13.774,16.987-45.961,10.489-56.683,9.047c1.42,7.412,3.905,15.19,1.366,22.677   c-4.871,13.033-14.617,16.669-27.959,18.234c11.425,8.746,21.096,19.73,27.82,32.478c7.079,0.344,14.2,2.248,21.268,0.613   c46.315-7.608,66.757-58.606,124.586-71.184c57.578-10,156.126,31.674,161.076,109.901   c8.91,102.703-121.169,119.885-24.302,239.554c36.437,42.97,64.118,138.913,20.031,193.468   c-5.239,7.76-39.879,37.554-56.435,74.874c-43.795,94.543,68.469,139.458,100.123,88.343c1.979-2.711,3.442-5.96,6.358-7.832   c-0.364,14.685-25.286,46.315-66.343,54.391c-68.906,11.665-127.299-50.677-136.914-104.619   c-7.013-35.567,11.365-54.618,13.985-59.641c-9.306,1.173-18.826,3.356-28.132,0.839c-24.904-5.906-42.386-29.907-45.828-54.488   c-0.946-10.701-7.491-23.694,1.764-37.878c1.721,6.326,0.323,13.038,1.764,19.45c5.211,42.968,86.181,36.005,66.72-13.942   c-4.615-15.523-16.18-27.4-24.947-40.6c-1.517-1.958-2.646-4.508-5.024-5.54c-46.853-18.249-75.177-29.002-54.241-76.692   c-10.543-2.485-21.666-4.368-30.713-10.704c-39.236-26.236,6.46-79.741,8.66-83.911c-22.541-50.267,51.07-82.579,62.503-111.483   c24.127-55.13-57.502-67.474-96.906-47.442c3.27,14.835-0.054,29.982-0.807,44.903c-3.637,36.028-6.754,75.706-36.705,118.734   c-2.654,99.816-6.615,101.274,35.737,176.675c8.227,16.811,53.242,54.142,55.166,57.834c9.425,51.747-26.848,83.145-9.553,138.7   c3.658,13.469,8.542,26.561,12.974,39.793c8.872,22.054,10.107,43.754,29.616,47.915c9.261,3.031,35.006-2.231,36.845,24.474   c4.177,35.123-22.234,106.6-42.149,99.004c-9.635-3.399-6.457-14.043-22.236-39.212c-7.025-9.349-15.717-17.245-23.936-25.496   c-13.049-13.426-15.663-32.822-24.442-48.733c-7.821-14.318-17.793-28.067-20.881-44.408c-1.775-7.584,2.022-14.857,1.904-22.409   c0.935-25.052-3.814-77.527-10.36-94.249c-9.004-17.6-16.158-36.049-24.668-53.875c-21.645-43.625-36.894-46.511-59.996-58.21   c-70.759-37.92-108.754-82.74-115.861-88.633c-26.657,58.645-17.521,63.254-7.477,88.128c7.251,16.158,13.092,32.876,19.74,49.292   c4.015,12.046,7.809,10.838,1.044,26.916c-22.469,53.731-117.264,48.715-132.073,68.107c-27.135,34.244-48.981-5.702-48.561,45.323   c0.258,4.497,0.065,9.069,0.968,13.523c8.081,10.125,25.065,20.408-26.012,76.251c-4.464,4.217-8.208,9.402-13.533,12.587   c-27.136-0.979-27.78-28.646-29.53-39.277c-7.321-43.588,12.271-88.283,33.93-126.576c7.095-13.168,133.486-45.423,134.687-86.052   c-2.792-56.601-121.62-83.933-110.837-192.618c3.157-42.847,30.278-73.025,33.672-78.349c-48-0.524-158.923,7.208-233.476-15.502   c-41.035-12.264-67.428-33.799-74.024-44.881c15.862,9.991,31.137,40.175,126.78,52.218   c113.881,13.791,219.737-11.298,278.099,16.933c-12.388-159.456,98.501-148.767,101.876-135.623   c-10.549,2.494-59.814-9.444-86.213,54.058c-15.422,37.153-10.496,87.592-7.928,94.066c2.022,5.54,1.463,11.532,1.861,17.32   c2.259,54.523,22.168,79.14,55.177,112.871c34.608,33.08,74.229,61.255,117.873,81.124c29.9,13.997,42.704,45.512,55.37,70.571   c13.308,31.353,26.711,43.538,28.497,123.779c1.076,9.435-1.097,18.805-2.55,28.078c0.801,17.467,20.105,39.645,27.572,60.437   c8.706,22.592,15.029,30.959,32.424,47.84c6.003-8.068,11.694-16.459,16.008-25.561c0.551-1.249,11.245-27.657,12.016-32.768   c-26.126-4.937-29.723-30.551-35.554-46.807c-8.639-27.153-20.687-53.907-21.623-82.813c2.089-34.007,20.93-68.182,16.556-102.64   c-0.863-1.002-45.389-43.671-49.991-52.068c-53.172-102.229-34.009-81.918-41.267-128.082c-3.684-22.27-2.348-56.31,7.261-68.581   c24.112-39.83,33.641-132.312,31.047-152.276c-4.504-52.906-37.723-90.597-44.214-89.903c-16.136,0.303-32.098-7.145-38.373-7.971   c-10.801,25.904-44.786,17.688-70.195,3.894c-2.205,3.335-4.228,7.229-8.208,8.714c-12.718,7.321-37.738,4.137-59.566-4.809   c-2.98,1.7-5.895,3.507-8.94,5.067c-23.587,4.017-42.885,2.704-63.17-9.843c-16.501,12.732-46.145,20.14-62.75,7.1   c-1.7-1.054-3.055-2.883-5.035-3.313c-4.013,0.527-7.821,2.324-11.909,2.109c-12.339-1.183-24.732-4.346-35.307-11.005   c-2.334-1.797-5.067-0.043-7.52,0.43c-35.344,8.415-43.415-15.321-60.803-41.342c-24.81,11.043-55.673,17.788-58.619,36.802   c-1.586,18.399,12.393,27.017,30.38,30.455c29.332,4.442,38.081-12.224,40.815-14.921c-0.032,5.174-2.098,10.812-6.508,13.813   c-3.948,2.808-6.648,7.025-10.855,9.499c-8.832,5.54-16.987,12.318-26.712,16.298c-32.634,14.475-84.61,17.186-105.426-11.575   c-39.469-55.318,10.575-69.806,24.485-88.687c35.413-55.933-28.218-74.363-50.798-110.945c-12.52-19.671-5.336-41.812,4.389-53.94   c-1.657,6.014-4.938,11.446-6.304,17.557c-16.545,60.361,108.996,72.648,59.394,151.911c-9.101,13.35-25.711,19.805-33.51,34.263   c-9.762,17.36,6.969,46.06,22.957,55.058c29.013,15.159,75.89,7.409,100.919-10.241c-4.412-0.141-36.298,2.506-48.442-18.503   c-4.766-8.886-6.734-20.139-2.259-29.519c13.275-28.261,66.978-24.533,84.481-53.197c29.073-75.152-26.071-101.84-17.567-128.028   c1.328,24.088,24.909,35.801,31.079,71.26c3.475-5.035,8.015-9.478,10.188-15.297c3.346-9.768,0.258-20.279,2.679-30.208   c2.684,1.185,3.043,2.165,6.24,15.351c24.826-15.662,30.875-39.402,15.416-68.065c8.09,4.411,12.253,13.533,15.061,21.914   c7.151,0.612,15.18-13.101,6.11-40.051c-4.475-12.705-14.803-21.784-21.978-32.844c-36.892-52.691,10.038-59.361-43.816-94.249   c0.318,5.039,8.708,28.696-3.023,62.621c-0.516,2.162-2.098,3.647-4.077,4.529c-2.75-23.1,17.09-67.293-43.763-128.867   c-27.243-26.217-31.157-12.066-60.502-17.772c2.368,13.05,7.791,26.243-0.527,36.845c-4.647-6.452-0.564-67.894-68.613-87.396   c-18.751-6.293-39.04-7.53-57.038-16.04c-1.355,0.904-2.743,1.743-4.163,2.507c-2.406,30.589,54.591,142.548,107.137,119.928   c2.625-1.194,5.411-2.012,8.327-2.13c-2.646,5.261-8.445,7.606-13.469,9.994c-53.437,25.283-120.308-102.51-107.718-133.655   c-5.497,0.516-10.607,2.819-16.051,3.604c-24.017,3.76-33.845-0.732-52.046-5.508c0.71,2.065,1.979,3.873,3.625,5.314   c13.619,12.49,20.881,30.219,25.571,47.721c8.486,38.38-1.875,61.995,38.255,91.839c2.851,2.173,6.465,3.453,8.52,6.562   c-5.347,0.043-9.929-2.926-14.824-4.604c-14.303-4.94-33.412-26.346-36.996-61.965c-9.015-126.651-106.807-89.938-131.557-61.47   c-20.187,20.681-13.815,51.83-10.209,71.959c4.131,2.593,8.316,5.164,12.899,6.917c-1.377-5.196-5.261-9.338-6.24-14.674   c-5.282-28.466,23.457-49.316,49.088-47.689c48.28,2.63,52.755,79.399,48.55,102.898c31.41,27.154,35.311,6.174,104.297,39.782   c49.158,27.599,54.224,74.268,15.502,103.544c56.551,27.28,91.613-33.382,71.12-69.678c-4.572-8.66-13.372-14.082-18.052-22.645   c25.66,13.347,37.838,39.88,28.196,68.688c-4.612,15.485-13.166,18.943-14.426,25.915c53.009,1.663,49.843-51.78,31.531-88.429   c-29.761-61.724-100.257-58.706-122.047-69.872c2.354-0.11,76.431,1.772,116.539,45.269   c24.631,34.436,40.782,77.693,13.533,110.138c-3.604,1.983-19.251,13.654-39.341,8.079c-3.098-0.645-6.659-1.958-9.467,0.183   c-20.225,13.429-47.577,9.334-63.6-4.551c-46.982,16.73-64.457-57.976-23.646-65.816c6.121-0.452,12.823-0.957,18.31,2.334   c11.54,5.818,17.61,22.622,2.184,28.11c1.495-2.356,3.443-4.464,4.604-7.025c1.658-6.443-4.001-19.304-24.474-15.921   c-32.269,10.038-7.838,68.357,23.785,46.215c33.971-24.265,37.838-83.726-77.789-109.805c-7.391-1.753-15.168-2.399-22.032-5.906   c-16.147-7.864-27.282-22.871-42.805-31.66c2.119,3.668,4.744,7.057,6.412,10.973c5.602,16.419-2.591,38.24-25.205,29.691   c0.28,6.788,1.495,13.953-1.14,20.451c-6.582,18.306-24.09,24.406-36.243,18.353c-9.055,18.454-29.549,27.826-50.583,29.616   c7.508,49.796,53.313,83.16,37.265,144.638c-3.549,8.918,30.128,53.22,54.897,48.324c16.379-14.315,8.843-26.63,9.144-39.137   c1.366-0.699,2.754-1.366,4.163-1.99c5.291,8.127,8.473,6.677,5.68,26.658c0.645-0.075,1.936-0.204,2.582-0.28   c14.78-20.664,20.16-25.453,19.149-31.961c-1.388-12.503-4.849-28.511,8.144-75.057c-5.379,1.99-11.102,4.292-16.933,3.195   c1.802-1.247,45.312-16.124,44.828-74.508c-0.172-3.346,2.162-6.777,0.355-9.94c-6.269-13.051-13.172-26.526-9.316-36.587   c2.576,31.921,46.325,67.9,34.274,109.396c-25.547,87.105,9.025,145.457,7.982,162.227c-6.583-3.445-13.628-26.866-21.128-46.764   c-0.452,0.387-1.366,1.14-1.829,1.528c-13.139,55.365-39.957,45.021-36.673,95.572c1.517,15.857,2.905,31.875,7.24,47.259   c0.656-0.011,1.958-0.043,2.614-0.065c1.434-43.02,23.346-58.854,37.964-60.201c1.312,0.699,2.528,1.571,3.754,2.431   c-6.328,7.91-16.638,6.715-28.175,31.305c-7.208,16.599-6.207,35.124-11.102,52.326c3.948-0.979,7.832-2.184,11.748-3.26   c13.006-3.486,26.744-2.754,39.707-6.433c5.131-1.377,9.607-4.335,14.458-6.412c-17.771,16.612-50.626,5.452-81.017,28.885   c-7.961,5.712-14.34,14.06-24.13,16.814c-20.343,6.53-41.708,9.693-61.491,17.998c-75.841,30.133-47.134,100.51-43.311,168.671   c0.362,32.337-1.664,27.279,4.615,38.47c9.069,14.125,21.784,26.023,28.132,41.815c5.865,13.644-0.494,18.04,25.098,44.828   c2.248,2.248,4.357,5.131,7.81,5.4c0.258-7.122,1.226-14.179,2.56-21.171c2.765-17.352-2.388-34.586-1.571-51.949   c-25.573-1.502-16.56-15.221-14.168-28.53c1.113-4.625-7.277-13.318-11.457-23.581c-11.482-27.62-19.297-76.414-0.871-99.531   c5.537-7.396,34.749-32.258,63.159-43.375c31.035-11.809,50.323-4.11,80.275,5.798c59.74,19.388,106.237-3.634,120.24-30.014   c10.611-20.441,7.657-27.597,9.338-39.169c0.538-0.161,1.614-0.506,2.152-0.678c3.627,46.63-24.219,74.313-67.215,82.867   c-43.139,8.613-74.096-11.592-106.061-15.502c-39.45-4.721-87.119,37.079-93.991,45.764c-15.936,21.595-8.149,65.361,2.012,90.279   c3.098,7.348,8.316,13.576,11.328,20.967c3.098,8.187-3.238,15.943-3.055,24.183c23.935,4.264,78.404-7.516,51.487,97.39   c-1.409,6.573-6.971,12.759-14.05,12.877c-9.445,0.269-17.847-5.099-25.474-10.069c-43.338-32.794-42.103-56.938-44.677-62.944   c-9.694-25.143-35.502-38.592-33.231-64.687c1.571-31.768-5.282-63.062-7.326-94.636c-2.16-79.886,29.69-94.57,107.212-112.268   c32.603-8.583,20.141-13.596,50.002-27.83c-2-8.911-19.112-32.835-20.031-71.916c-2.237-49.225,21.098-49.61,31.488-72.884   c-13.971,4.296-34.513,41.049-165.702,52.272c-9.983,0.14-19.848,1.646-29.745,2.754c-110.753,18.763-43.265,99.978-58.781,164.82   c-13.749,58.421-7.645,50.369-0.495,63.837c9.553,15.749,9.714,35.103,7.154,52.81c-1.43,8.049,7.947,28.988,11.07,34.694   c25.698-18.504,32.618-37.931,38.47-59.609c-28.457-21.138-25.292-34.499-18.858-52.197c9.039-29.241-11.661-11.469-5.131-77.37   c3.573-24.148,14.103-61.122,34.974-71.367c30.765-15.508,69.118,0.357,90.43,3.023c14.838,2.971,60.001,4.918,76.154,11.027   c-3.134,2.01-68.197-1.714-100.94-9.736c-16.599-3.443-34.134-5.863-50.755-1.28c-5.691,2.291-12.049,3.722-16.556,8.176   c-20.572,19.733-30.702,79.302-21.021,108.288c1.71,5.314,5.379,10.134,5.228,15.954c-0.019,18.442-15.791,27.552-3.798,46.033   c9.692,15.735,21.616,20.078,25.517,24.979c17.353,20.333,12.45,64.062-11.167,83.545c-33.059,28.442-66.642-48.799-63.492-64.547   c6.311-51.595-15.689-50.189-15.082-68.441c1.485-34.02,14.172-54.502,12.07-78.672c-2.511-31.166-18.486-79.162,1.936-110.17   c18.118-29.437,64.944-32.167,99.542-33.08c33.582-2.503,95.92-11.271,125.005-28.465c17.41-8.603,35.27-20.667,37.975-23.258   c26.146-49.086-10.232-23.093,18.826-140.647c5.252-19.921-6.051-44.591-9.133-47.711c-3.018,24.405-10.502,41.002-32.101,58.286   c0,0-6.056,44.427-6.057,44.43c-1.334,13.318,3.249,26.389,1.979,39.707c-2.991,11.059-12.328,18.665-17.836,28.401   c-47.922,60.767-98.847-27.283-95.551-35.221c17.714-57.302-19.095-79.171-30.95-145.66c-7.04-1.254-21.369-1.218-30.337-15.082   c-7.186-0.237-15.255-0.721-21.225,4.023c-6.627,3.808-7.218,12.802-5.304,19.45c7.908,27.155,61.059,54.999,12.909,88.225   c-32.008,18.872-65.865-15.107-43.881-38.276c1.216,3.432-0.796,8.197,2.862,10.446c4.873,3.808,11.414,4.54,17.395,4.034   c2.507-0.14,4.454-1.904,6.433-3.238c-2.022-6.25-6.745-10.995-10.553-16.158c-6.691-8.23-11.887-17.503-18.116-26.055   c-12.987-17.993-20.744-36.795-12.791-59.426c22.954-66.174,69.552-49.876,74.175-58.307   c-31.154-13.231-28.843-25.846-23.495-27.712c4.464-1.151,9.187-0.463,13.748-0.957c-3.372-5.684-191.723-145.202-201.569-154.568   c10.024,4.718,227.905,142.254,236.994,145.865c-2.689-5.088-8.047-8.563-9.402-14.372c14.534-0.785,29.078-6.788,43.601-2.421   c-12.045-37.095-9.877-68.289,23.409-89.333c59.466-37.385,87.984-1.753,134.763-4.228c22.377-1.558,29.321-12.696,39.083-0.398   c8.503,12.075,103.922,1.279,124.833,69.183c34.975,1.627,37.981-13.137,71.485,19.665c33.449,34.744,35.649,50.474,39.32,58.619   c12.638,8.373,9.764,3.885,30.176,21.892c44.211-46.393,37.243-76.332,50.949-105.469   c46.019-108.154,216.689-82.285,367.486-148.909c60.359-25.934,65.23-34.663,146.36-65.773   C1351.206,101.054,1390.998,94.597,1468.543,39.949 M1480.14,42.854c-84.637,68.562-148.345,69.608-230.399,112.881   c-21.204,10.22-42.472,20.321-64.149,29.466c-169.236,70.564-337.614,36.34-372.617,163.077   c-15.416,59.247-23.415,55.762-46.796,84.362c15.19,29.09-9.771,35.89,32.897,83.104c19.714,22.051,25.06,61.946-1.237,69.667   c0.979,8.951-1.398,17.654-4.142,26.077c29.35-5.633,44.58-25.355,95.174-34.188c120.403-14.003,143.149-139.995,244.255-183.216   c46.208-21.464,71.694-34.706,116.518-45.893c19.195-5.966,82.715-15.015,87.633-37.91c-4.723-4.066-10.65-6.422-16.728-7.477   c-9.036-1.667-17.955-5.809-27.292-4.077c-12.925,1.045-40.497,1.664-45.699-10.145c7.907-3.582,16.814-1.667,25.206-2.324   c63.663-5.508,127.923-37.837,138.786-59.942c-5.121-4.497-12.877-3.797-18.934-1.861   c-38.784,13.552-112.172,20.541-113.839,10.198c3.096-3.707,28.003-7.274,43.687-10.446c32.026-5.788,65.031-10.865,94.055-26.464   c17.376-10.788,38.197-28.444,41.794-48.356c2.903-12.082-32.889-14.4-67.441-3.238c-2.399,0.893-4.938,1.194-7.315,0.172   c12.837-6.358,108.219-46.849,117.109-95.604c0.086-4.723,0.818-11.543-4.432-13.835   C1490.145,35.41,1484.594,39.175,1480.14,42.854 M324.701,322.535c-12.355,12.428-13.997,29.858,1.84,46.033   c14.891,9.764,32.088-2.094,64.6,22.505c3.249,2.302,6.067,5.497,10.134,6.379C394.538,280.486,338.717,308.412,324.701,322.535    M263.36,359.671c1.06,4.709-1.69,2.884,23.398,20.709c4.4,2.808,8.832,7.003,14.512,5.895c9.338-1.226,16.675-7.864,24.958-11.812   C283.708,347.331,286.227,360.432,263.36,359.671 M322.431,382.8c-5.809,3.12-12.006,5.336-18.364,7.036   c3.667,7.266,21.811,7.222,35.146,15.545c4.432,2.442,7.885,6.24,12.059,9.058c0.796-4.497,1.549-9.639,5.562-12.511   c1.646-1.797,3.97-0.527,5.831,0.118c-6.681,5.465-5.583,17.922,2.345,21.591c3.41,0.473,8.24,1.592,10.51-1.786   C389.973,399.209,346.283,370.066,322.431,382.8 M286.296,387.307c-10.734,21.392,58.006,43.602,39.976,80.845   c26.895-2.724,29.346-28.079,21.688-41.342C337.691,406.329,316.533,410.168,286.296,387.307 M231.496,390.137   c-0.054,1.108-0.065,2.238-0.043,3.356c2.636,2.071,22.325,15.68,22.451,15.728c3.41-0.678,6.713-1.797,10.048-2.732   c-0.947-4.056-5.11-5.669-8.058-8.047c-4.217-2.56-7.369-6.616-11.791-8.832C239.919,389.007,235.691,389.954,231.496,390.137    M281.379,396.989c-2.162,3.131-6.014,4.68-8.058,7.789c-2.033,20.732,23.471,38.213,14.77,57.662   c-3.69,8.24-10.747,15.233-19.267,18.353c-6.003,2.324-12.339,0.366-18.503,0.226c2.678,10.271,35.759,17.233,61.298-4.669   C341.753,450.425,288.647,422.993,281.379,396.989 M252.645,414.127c-21.048,4.663-49.024,7.71-62.169,28.132   c-36.214,54.245-3.453,72.544,24.721,118.389c8.136,13.024-3.676,21.824-16.147,20.289c-5.788-0.538-10.726-3.841-16.169-5.508   c1.489,11.944,18.859,20.165,29.691,17.718c11.193-2.561,32.783-17.919,22.01-37.921c-10.352-19.338-25.356-30.994-26.701-48.604   c-2.306-20.959,17.938-26.274,31.692-22.484c-2.066-5.293-3.894-11.081-2.539-16.782c4.737-8.901,11.475,1.041,13.125,2.302   c12.157,10.504,30.841-1.375,32.93-14.523c0.559-6.874-2.485-13.35-5.39-19.385c-4.292-8.789-8.402-18.084-8.294-28.067   C263.844,409.91,258.541,412.836,252.645,414.127 M1327.692,759.817c-51.419,8.719-76.183,55.889-118.82,65.224   c-8.778,2.345-17.944,1.646-26.905,1.313c9.414,18.71,14.877,37.225,16.61,49.626c32.512-19.451,92.432-15.099,106.663,15.846   c8.091,15.965,0.04,39.973-8.423,50.034c-16.692,19.519-73.269,59.076-59.716,90.312c1-0.9,65.849-70.017,73.594-74.164   c-4.325,15.052-66.929,71.185-69.689,86.105c-1.721,0.721-3.324,1.754-4.314,3.378c-43.475,61.768,1.895,71.249,19.117,82.717   c31.409-61.876,20.907-42.928,31.305-67.806c-5.786,48.079-40.679,84.524-26.389,107.158c8.905,14.446,35.119,27.748,44.419,30.305   c-1.369-3.994-36.606-65.678,5.368-101.295c-4.005,6.612-25.198,29.596-10.145,72.368c15.895,50.188,65.074,73.287,48.227,114.269   c-10.662,17.681-29.052,23.072-48.044,20.181c-7.907-1.183-14.738-5.368-21.569-9.176c0.707,9.795,22.938,43.249,55.682,36.157   c21.988-2.953,27.531-14.798,33.263-8.316c-5.734,5.572-12.544,9.768-19.31,13.92c-51.537,55.988,35.095,185.195,132.826,154.288   c-0.054-0.43-0.151-1.313-0.204-1.743c-4.636-1.349-38.037-1.531-61.276-30.423c-28.874-35.425-19.101-81.016,4.895-120.111   c31.509-50.476,79.534-63.693,59.49-154.127c-17.63-77.955-56.151-87.784-68.635-134.418   c-16.425-54.251,30.657-105.999,39.341-120.164C1522.349,825.29,1404.01,749.881,1327.692,759.817 M835.534,1009.925   c-125.77,186.609,169.624,222.459,57.21,305.639c-32.402,22.817-71.044,33.833-105.738,52.39   c-4.336,2.016-37.974,61.315-35.651,111.461c8.763-0.51,37.868-31.113,52.025-34.038c-7.976-81.404,24.813-37.286,50.389-68.753   c12.749-15.446,56.611-15.94,91.893-31.811c32.011-11.676,43.9-37.487,41.407-44.634c-9.488-24.646-17.976-49.679-27.981-74.132   c-9.555-22.12,3.872-53.631,16.545-73.992c4.299-6.273-4.417-6.745-15.577-24.947c-59.58-85.438,34.562-116.238-118.798-118.97   C839.267,1008.257,836.588,1007.73,835.534,1009.925 M242.436,1018.606c2.271,24.444-17.332,55.857-35.78,63.137   c0.097,1.711-0.183,3.615,0.914,5.11c29.886,46.521,64.403-22.875,46.527-58.393   C251.849,1023.619,246.772,1021.21,242.436,1018.606 M354.048,1122.429c8.164,36.005,13.702,44.875,1.237,80.016   c7.391,4.938,15.104,11.565,24.495,11.156c3.776,0.194,5.121-3.98,5.949-6.896C397.209,1160.886,400.806,1123.229,354.048,1122.429    M782.401,1468.841c-34.816,22.546-29.639,14.85-29.24,24.442c3.04,16.078,2.35,23.642,18.041,28.024   c18.097-18.613,57.852-61.317,33.909-71.313C799.13,1457.911,790.954,1463.957,782.401,1468.841 M1292.331,1514.744   c-1.655,7.396-3.485,32.673-32.456,60.297c6.885,9.273,12.952,19.149,17.481,29.799c2.162,3.948,2.797,8.778,6.057,12.081   c14.599-12.454,26.993-50.881,29.057-76.23C1312.318,1526.886,1313.484,1513.832,1292.331,1514.744z"/>
	<path opacity="0.96" enable-background="new    " d="M1410.021,434.297c5.486-2.012,10.596-5.368,16.556-5.885   c-10.424,8.907-24.227,13.103-33.715,23.183c-19.592,18.419-41.252,22.742-65.418,29.379   c-37.725,8.974-26.975,17.334-32.273,31.122c-9.663,27.156-31.77,16.894-48.302,19.375c-9.788,1.061-5.313,14.578-15.47,32.887   c-19.546,39.704-58.049,14.531-73.282,13.662c-9.303,51.642-42.271,30.911-58.361,34.264c-2.248,1.323-2.356,4.4-3.184,6.648   c-12.138,49.727-55.193,23.921-76.38,26.916c-10.019,2.258-5.59,18.513-19.009,29.476c-18.894,17.699-53.455-11.328-67.021-9.09   c-5.606,3.068-4.124,46.745-82.652,17.912c-4.292,25.188-43.664,9.66-66.827-1.291c-6.82-3.087-13.824-5.949-19.999-10.241   c11.459,2.428,80.865,39.882,82.211,9.725c-4.411-2.603-8.94-4.992-13.2-7.821c0.387-1.162,0.828-2.291,1.345-3.389   c3.418,0.293,62.56,33.064,84.599,7.595c7.654-8.013,4.38-22.516,20.558-19.095c19.171,4.194,47.805,25.867,60.297,5.314   c7.038-9.922,3.281-26.886,23.678-27.314c19.345-0.045,48.082,13.508,59.071-7.261c7.841-12.824,3.403-26.882,19.428-26.948   c9.639-0.043,19.289,2.711,28.917,0.979c23.655-4.933,9.022-39.586,30.305-35.135c11.795,2.127,36.713,14.74,50.357,4.002   c18.008-12.421,14.909-39.344,24.592-47.474c13.751-10.322,36.964,2.788,46.732-10.209c5.53-8.208,3.518-19.246,9.381-27.293   c11.964-16.561,40.27-12.583,78.898-29.659C1385.719,452.306,1395.358,439.117,1410.021,434.297z"/>
	<path opacity="0.96" enable-background="new    " d="M1202.299,435.502c-5.465,5.669-13.716,7.434-19.558,12.597   c-1.13,4.152,4.819,6.326,4.981,10.403c2.21,19.173-65.836,36.254-64.45,49.077c2.657,3.539,8.101,4.572,9.424,9.123   c-1.671,25.898-60.93,19.446-84.223,29.928c11.944,38.408-25.662,39.837-66.214,43.397c2.517,6.638,2.065,14.329-1.797,20.365   c-14.041,23.837-67.846,14.75-85.277,16.943c0,4.752,3.754,11.222-15.685,13.652c-24.585,2.033-56.589-5.926-63.127-8.918   c13.762,0.958,51.574,11.369,73.078,1.334c0.129-2.786-3.733-3.604-4.045-6.24c-2.09-16.789,87.097,9.597,91.194-28.992   c-15.9-13.317-3.128-15.078,17.503-17.116c64.498-5.33,46.987-23.664,45.333-34.446c-1.158-15.895,47.524-13.489,73.26-22.387   c2.84-1.312,5.648-2.722,8.574-3.851c-0.775-4.432-6.551-5.465-7.197-9.886c-6.681-23.041,54.365-33.583,67.075-50.992   c-2.001-2.689-5.056-4.712-6.401-7.778C1175.032,441.292,1196.294,434.847,1202.299,435.502z"/>
	<path opacity="0.96" enable-background="new    " d="M339.902,514.314c4.378-5.174,10.865-7.982,17.374-9.413   c1.904,0.194,3.249,1.99,4.863,2.915c-1.915,2.281-3.937,4.475-6.014,6.627c2.341,12.296-0.401,17.887-16.083,16.094   c-1.474,3.044-2.829,6.153-4.389,9.155C334.351,531.096,335.685,521.952,339.902,514.314z"/>
	<path opacity="0.96" enable-background="new    " d="M666.088,521.328c-2.747,16.733-15.161,38.492-5.874,67.666   c1.248,5.992,6.401,11.436,4.013,17.858c-0.581-0.237-1.743-0.71-2.324-0.957C632.055,582.216,658.213,524.153,666.088,521.328z"/>
	<path opacity="0.96" enable-background="new    " d="M680.988,532.021c1.026,8.637-5.865,36.542,5.519,65.02   c4.906,12.458,11.64,24.076,18.019,35.823c12.523,20.58,4.625,11.342,23.656,29.089   C707.408,670.866,654.622,587.053,680.988,532.021z"/>
	<path opacity="0.96" enable-background="new    " d="M608.351,563.595c2.954,45.193,63.574,52.454,79.349,109.643   c1.667,9.542,1.603,19.923-2.948,28.712c-5.255,10.477-15.053,23.544-23.377,26.518c0.893-6.326,5.411-11.156,8.337-16.599   c30.689-57.867-32.188-84.967-56.156-119.271C603.15,577.679,605.759,564.777,608.351,563.595z"/>
	<path opacity="0.96" enable-background="new    " d="M343.775,615.803c4.056,8.886,12.823,14.641,16.04,23.958   c3.012,8.273-1.452,19.439-10.327,21.774c-9.295,1.355-20.709-6.691-19.074-16.771c2.13-4.906,9.09-4.217,12.135-0.635   c0.936,1.904-0.764,3.797-1.442,5.53c2.055,1.054,4.034,2.571,6.401,2.819c2.539-0.592,3.754-3.26,4.508-5.508   C355.616,638.057,341.042,626.802,343.775,615.803z"/>
	<path opacity="0.96" enable-background="new    " d="M660.225,680.209c6.735,8.789,5.877,27.101-9.08,40.912   c-8.907,7.916-29.472,12.827-37.986,36.232c-10.225,25.389,5.606,56.672,30.38,60.071c7.38,1.291,14.555-2.001,21.967-1.076   c-0.118,0.57-0.355,1.711-0.473,2.281c-4.733,2.7-9.972,4.518-15.147,6.143c-7.67-0.215-15.631-0.344-22.656-3.83   c-36.142-16.9-36.419-76.902,6.734-96.583C664.426,710.854,661.037,691.036,660.225,680.209z"/>
	<path opacity="0.96" enable-background="new    " d="M1303.53,808.722c35.608-29.979,117.387-14.214,121.412,39.578   c3.387,28.763-9.102,70.612-19.891,94.066c-2.894-1.732-1.624-5.314-1.485-8.004c6.132-31.985,17.712-70.675,8.735-97.143   c-11.3-35.272-71.302-46.259-101.037-27.185c-13.254,8.277-30.845,29.57-46.592,28.121c4.109-2.291,8.778-3.432,12.705-6.078   C1287.178,825.558,1294.31,815.951,1303.53,808.722z"/>
	<path opacity="0.96" enable-background="new    " d="M1302.594,850.333c5.815-2.119,51.914-4.896,60.329,35.35   c10.606,49.973-29.117,135.093-7.745,204.57c12.922,45.753,49.429,68.83,53.993,79.511c-7.444-3.217-13.834-8.37-20.171-13.307   c-122.431-111.796,34.215-274.742-64.773-303.1C1317.192,851.269,1309.802,851.301,1302.594,850.333z"/>
</g>
<head xmlns=""/></svg>